# xmcd
#
# Track frame offsets:
#	150
#	15760
#	31123
#	48171
#	62604
#	76739
#	95157
#	114597
#	133242
#	149675
#	167317
#	182224
#
# Disc length: 2631 seconds
#
# Revision: 0
# Processed by: cddbd v1.5.2PL0 Copyright (c) Steve Scherf et al.
# Submitted via: audiograbber 1.82.01
#
DISCID=940a450c
DTITLE=SheDaisy - Fortuneteller's Melody
DYEAR=2006
DGENRE=Country
TTITLE0=23 Days
TTITLE1=Whatever It Takes  
TTITLE2=Bring It On Back
TTITLE3=I'm Taking The Wheel  
TTITLE4=God Bless The American Housewife  
TTITLE5=Kickin' In  
TTITLE6=Healing Side  
TTITLE7=What Do I Do Now
TTITLE8=In Terms Of Love
TTITLE9=Burn Down The House
TTITLE10=Out Of My Mind  
TTITLE11=She Gets What I Deserve
EXTD=
EXTT0=
EXTT1=
EXTT2=
EXTT3=
EXTT4=
EXTT5=
EXTT6=
EXTT7=
EXTT8=
EXTT9=
EXTT10=
EXTT11=
PLAYORDER=
